<svg width="16" height="16" viewBox="0 0 16 16" fill="none" xmlns="http://www.w3.org/2000/svg">
<path fill-rule="evenodd" clip-rule="evenodd" d="M8 2C6.71435 2 5.52841 2.19025 4.64589 2.51384C4.20663 2.6749 3.81609 2.87856 3.52612 3.12994C3.23747 3.38018 3 3.72332 3 4.15C3 4.57668 3.23747 4.91982 3.52612 5.17006C3.81609 5.42144 4.20663 5.6251 4.64589 5.78616C5.52841 6.10975 6.71435 6.3 8 6.3C9.28565 6.3 10.4716 6.10975 11.3541 5.78616C11.7934 5.6251 12.1839 5.42144 12.4739 5.17006C12.7625 4.91982 13 4.57668 13 4.15C13 3.72332 12.7625 3.38018 12.4739 3.12994C12.1839 2.87856 11.7934 2.6749 11.3541 2.51384C10.4716 2.19025 9.28565 2 8 2ZM4 4.15C4 4.12104 4.01437 4.03012 4.18115 3.88555C4.3466 3.74212 4.61507 3.59024 4.99015 3.45271C5.73631 3.17912 6.80037 3 8 3C9.19963 3 10.2637 3.17912 11.0099 3.45271C11.3849 3.59024 11.6534 3.74212 11.8189 3.88555C11.9856 4.03012 12 4.12104 12 4.15C12 4.17896 11.9856 4.26988 11.8189 4.41445C11.6534 4.55788 11.3849 4.70976 11.0099 4.84729C10.2637 5.12088 9.19963 5.3 8 5.3C6.80037 5.3 5.73631 5.12088 4.99015 4.84729C4.61507 4.70976 4.3466 4.55788 4.18115 4.41445C4.01437 4.26988 4 4.17896 4 4.15Z" fill="#097165"/>
<path d="M5.32781 6.88316C5.06276 6.80568 4.78508 6.95772 4.70759 7.22277C4.6301 7.48782 4.78215 7.7655 5.04719 7.84299C5.40975 7.94898 5.8103 8.03613 6.23923 8.09968C6.51239 8.14015 6.76663 7.95151 6.8071 7.67835C6.84757 7.40519 6.65894 7.15094 6.38577 7.11047C5.99795 7.05302 5.6425 6.97517 5.32781 6.88316Z" fill="#097165"/>
<path d="M4 7.99998C4 7.72383 3.77614 7.49998 3.5 7.49998C3.22386 7.49998 3 7.72383 3 7.99998C3 8.42668 3.23748 8.76983 3.52615 9.02007C3.81614 9.27145 4.20669 9.47512 4.64596 9.63617C5.52849 9.95975 6.71443 10.15 8 10.15C9.28557 10.15 10.4715 9.95975 11.354 9.63617C11.7933 9.47512 12.1839 9.27145 12.4739 9.02007C12.7625 8.76983 13 8.42668 13 7.99998C13 7.72383 12.7761 7.49998 12.5 7.49998C12.2239 7.49998 12 7.72383 12 7.99998C12 8.02895 11.9856 8.11988 11.8188 8.26446C11.6534 8.40789 11.3849 8.55976 11.0098 8.69729C10.2636 8.97088 9.19955 9.14998 8 9.14998C6.80045 9.14998 5.73638 8.97088 4.9902 8.69729C4.6151 8.55976 4.34662 8.40789 4.18116 8.26446C4.01438 8.11988 4 8.02895 4 7.99998Z" fill="#097165"/>
<path d="M5.32781 10.7332C5.06276 10.6557 4.78508 10.8077 4.70759 11.0728C4.6301 11.3378 4.78215 11.6155 5.04719 11.693C5.40975 11.799 5.8103 11.8861 6.23923 11.9497C6.51239 11.9901 6.76663 11.8015 6.8071 11.5284C6.84757 11.2552 6.65894 11.0009 6.38577 10.9605C5.99795 10.903 5.6425 10.8252 5.32781 10.7332Z" fill="#097165"/>
<path fill-rule="evenodd" clip-rule="evenodd" d="M3.5 3.65C3.77614 3.65 4 3.87386 4 4.15V11.85C4 11.879 4.01438 11.9699 4.18116 12.1145C4.34662 12.2579 4.6151 12.4098 4.9902 12.5473C5.73638 12.8209 6.80045 13 8 13C9.19955 13 10.2636 12.8209 11.0098 12.5473C11.3849 12.4098 11.6534 12.2579 11.8188 12.1145C11.9856 11.9699 12 11.879 12 11.85V4.15C12 3.87386 12.2239 3.65 12.5 3.65C12.7761 3.65 13 3.87386 13 4.15V11.85C13 12.2767 12.7625 12.6199 12.4739 12.8701C12.1839 13.1215 11.7933 13.3251 11.354 13.4862C10.4715 13.8098 9.28557 14 8 14C6.71443 14 5.52849 13.8098 4.64596 13.4862C4.20669 13.3251 3.81614 13.1215 3.52615 12.8701C3.23748 12.6199 3 12.2767 3 11.85V4.15C3 3.87386 3.22386 3.65 3.5 3.65Z" fill="#097165"/>
</svg>
