<svg width="16" height="16" viewBox="0 0 16 16" fill="none" xmlns="http://www.w3.org/2000/svg">
<path fill-rule="evenodd" clip-rule="evenodd" d="M4.75 2C4.33579 2 4 2.33579 4 2.75V5.08333C4 5.49755 4.33579 5.83333 4.75 5.83333H6.6703L9.97549 13.5454C10.0937 13.8212 10.3648 14 10.6648 14H13.25C13.6642 14 14 13.6642 14 13.25V10.75C14 10.3358 13.6642 10 13.25 10H12.327L9.02361 2.44939C8.90418 2.17639 8.63447 2 8.3365 2H4.75ZM5 4.83333V3H8.17299L11.4764 10.5506C11.5958 10.8236 11.8655 11 12.1635 11H13V13H10.8297L7.52451 5.28789C7.40633 5.01213 7.13517 4.83333 6.83515 4.83333H5Z" fill="#CC4000"/>
<path fill-rule="evenodd" clip-rule="evenodd" d="M6.0117 7.30912C5.84527 6.91717 5.30415 6.89221 5.10295 7.26711L2.09074 12.8799C1.82255 13.3796 2.18104 13.9871 2.74413 13.9871H5.40806C5.66908 13.9871 5.91095 13.8489 6.04525 13.623L7.3941 11.3539C7.51687 11.1474 7.53391 10.894 7.43992 10.6726L6.0117 7.30912ZM3.15999 12.9871L5.49627 8.63383L6.47936 10.9491L5.26781 12.9871H3.15999Z" fill="#CC4000"/>
</svg>
