<svg width="16" height="16" viewBox="0 0 16 16" fill="none" xmlns="http://www.w3.org/2000/svg">
<path fill-rule="evenodd" clip-rule="evenodd" d="M7.90385 13.9807L2.15385 11.5765C2.06068 11.5376 2 11.4462 2 11.3449V5.00031C1.99984 4.99295 1.99984 4.98558 2 4.97819V4.65505C2 4.55378 2.06068 4.46243 2.15385 4.42348L7.90385 2.0193C7.96538 1.99357 8.03462 1.99357 8.09615 2.0193L13.8462 4.42348C13.9393 4.46243 14 4.55378 14 4.65505V4.9782C14.0002 4.98558 14.0002 4.99295 14 5.00031V11.3449C14 11.4462 13.9393 11.5376 13.8462 11.5765L8.09615 13.9807C8.03462 14.0064 7.96538 14.0064 7.90385 13.9807ZM3 10.8432V5.76876L7.5 7.82134L7.5 12.7247L3 10.8432ZM8.5 12.7247L13 10.8432V5.76876L8.5 7.82134L8.5 12.7247ZM8 6.94712L3.56085 4.92229L8 3.0662L12.4392 4.92229L8 6.94712Z" fill="#0062AD"/>
</svg>
