<svg width="16" height="16" viewBox="0 0 16 16" fill="none" xmlns="http://www.w3.org/2000/svg">
<path fill-rule="evenodd" clip-rule="evenodd" d="M7.90397 13.9807L2.15397 11.5765C2.06081 11.5376 2.00012 11.4462 2.00012 11.3449V5.00031C1.99996 4.99295 1.99996 4.98558 2.00012 4.97819V4.65505C2.00012 4.55378 2.06081 4.46243 2.15397 4.42348L7.90397 2.0193C7.96551 1.99357 8.03474 1.99357 8.09628 2.0193L13.8463 4.42348C13.9394 4.46243 14.0001 4.55378 14.0001 4.65505V4.9782C14.0003 4.98558 14.0003 4.99295 14.0001 5.00031V11.3449C14.0001 11.4462 13.9394 11.5376 13.8463 11.5765L8.09628 13.9807C8.03474 14.0064 7.96551 14.0064 7.90397 13.9807ZM3.00012 10.8432V5.76876L7.50012 7.82134L7.50012 12.7247L3.00012 10.8432ZM8.50012 12.7247L13.0001 10.8432V5.76876L8.50012 7.82134L8.50012 12.7247ZM8.00012 6.94712L3.56097 4.92229L8.00012 3.0662L12.4393 4.92229L8.00012 6.94712Z" fill="#2D489F"/>
</svg>
