<svg width="16" height="16" viewBox="0 0 16 16" fill="none" xmlns="http://www.w3.org/2000/svg">
<path fill-rule="evenodd" clip-rule="evenodd" d="M13.9795 7.5C13.7254 4.42023 11.1453 2 8 2C4.85467 2 2.27461 4.42023 2.02054 7.5H2V8.5H2.02054C2.27461 11.5798 4.85467 14 8 14C11.1453 14 13.7254 11.5798 13.9795 8.5H14V7.5H13.9795ZM8.06302 12.9805C8.02386 12.9997 8.00529 13 8 13C7.99471 13 7.97614 12.9997 7.93698 12.9805C7.89422 12.9595 7.82641 12.9152 7.73928 12.8267C7.5594 12.6441 7.35138 12.3286 7.15531 11.858C6.80735 11.0229 6.55899 9.84872 6.50918 8.5H9.49082C9.44101 9.84872 9.19265 11.0229 8.84469 11.858C8.64862 12.3286 8.4406 12.6441 8.26072 12.8267C8.17359 12.9152 8.10578 12.9595 8.06302 12.9805ZM9.49082 7.5H6.50918C6.55899 6.15128 6.80735 4.97708 7.15531 4.14197C7.35138 3.67141 7.5594 3.35589 7.73928 3.17329C7.82641 3.08484 7.89422 3.0405 7.93698 3.01949C7.97614 3.00026 7.99471 3 8 3C8.00529 3 8.02386 3.00026 8.06302 3.01949C8.10578 3.0405 8.17359 3.08484 8.26072 3.17329C8.4406 3.35589 8.64862 3.67141 8.84469 4.14197C9.19265 4.97708 9.44101 6.15128 9.49082 7.5ZM10.4914 8.5C10.4318 10.2365 10.0639 11.7634 9.5195 12.7649C11.3853 12.1704 12.7757 10.5104 12.9753 8.5H10.4914ZM12.9753 7.5H10.4914C10.4318 5.76346 10.0639 4.2366 9.5195 3.23507C11.3853 3.82956 12.7757 5.48963 12.9753 7.5ZM3.02469 8.5C3.22429 10.5104 4.61466 12.1704 6.4805 12.7649C5.93607 11.7634 5.56825 10.2365 5.50856 8.5H3.02469ZM5.50856 7.5C5.56825 5.76346 5.93607 4.2366 6.4805 3.23507C4.61466 3.82956 3.22429 5.48963 3.02469 7.5H5.50856Z" fill="#097165"/>
</svg>
