<svg width="17" height="16" viewBox="0 0 17 16" fill="none" xmlns="http://www.w3.org/2000/svg">
<path d="M8.50008 8.66665C8.86827 8.66665 9.16675 8.36817 9.16675 7.99998C9.16675 7.63179 8.86827 7.33331 8.50008 7.33331C8.13189 7.33331 7.83341 7.63179 7.83341 7.99998C7.83341 8.36817 8.13189 8.66665 8.50008 8.66665Z" stroke="#475467" stroke-linecap="round" stroke-linejoin="round"/>
<path d="M13.1667 8.66665C13.5349 8.66665 13.8334 8.36817 13.8334 7.99998C13.8334 7.63179 13.5349 7.33331 13.1667 7.33331C12.7986 7.33331 12.5001 7.63179 12.5001 7.99998C12.5001 8.36817 12.7986 8.66665 13.1667 8.66665Z" stroke="#475467" stroke-linecap="round" stroke-linejoin="round"/>
<path d="M3.83341 8.66665C4.2016 8.66665 4.50008 8.36817 4.50008 7.99998C4.50008 7.63179 4.2016 7.33331 3.83341 7.33331C3.46522 7.33331 3.16675 7.63179 3.16675 7.99998C3.16675 8.36817 3.46522 8.66665 3.83341 8.66665Z" stroke="#475467" stroke-linecap="round" stroke-linejoin="round"/>
</svg>
