<svg width="16" height="16" viewBox="0 0 16 16" fill="none" xmlns="http://www.w3.org/2000/svg">
<path d="M8 1.03126C7.56687 1.03226 7.13375 1.05176 6.70212 1.09089C6.43991 1.11475 6.17853 1.14697 5.91837 1.18751C5.68395 1.2256 5.45125 1.27247 5.22025 1.32814C5.02 1.37689 4.82175 1.43564 4.6265 1.50289C4.54191 1.53405 4.45808 1.56793 4.375 1.60451C4.26608 1.65251 4.16062 1.70735 4.05862 1.76901C4.02854 1.78735 3.99891 1.80655 3.96975 1.82664C3.8725 1.89474 3.78664 1.97781 3.71537 2.07276C3.68782 2.11344 3.66548 2.1574 3.64887 2.20364C3.62852 2.26542 3.6222 2.33097 3.63037 2.39551C3.6362 2.43551 3.64712 2.4741 3.66312 2.51126C3.68062 2.55026 3.70262 2.58751 3.729 2.62114C3.774 2.68014 3.82525 2.73389 3.88187 2.78126C3.97451 2.85952 4.07594 2.92672 4.18412 2.98151C4.31347 3.0509 4.44795 3.11028 4.58637 3.15914L4.542 3.17339C4.82012 3.26249 5.10197 3.33952 5.38675 3.40426C5.67187 3.46976 5.96 3.52251 6.25 3.56251C6.5395 3.60301 6.831 3.63089 7.1235 3.64601C7.41543 3.66107 7.70788 3.66315 8 3.65226C8.28412 3.66014 8.56875 3.65576 8.8525 3.63914C9.13603 3.62145 9.4187 3.59184 9.69975 3.55039C9.75825 3.54289 9.815 3.53414 9.871 3.52639C9.94716 3.51522 10.023 3.50335 10.0986 3.49076C10.2617 3.46532 10.4239 3.43422 10.5849 3.39751C10.8658 3.3358 11.1426 3.25652 11.4136 3.16014C11.5249 3.11764 11.6349 3.07076 11.7422 3.01851C11.8349 2.97237 11.9245 2.92052 12.0107 2.86326C12.0814 2.81416 12.1474 2.75877 12.208 2.69776C12.2567 2.64551 12.2989 2.58651 12.3315 2.52251C12.3579 2.46489 12.3721 2.40239 12.3735 2.33876C12.3737 2.26948 12.3562 2.20129 12.3227 2.14064C12.299 2.09409 12.2692 2.05092 12.234 2.01226C12.1946 1.96843 12.1518 1.92776 12.106 1.89064C12.0812 1.86948 12.0556 1.8493 12.0292 1.83014C11.9696 1.78896 11.9077 1.75127 11.8437 1.71726C11.6934 1.63291 11.5357 1.56249 11.3725 1.50689C11.0684 1.40052 10.7571 1.3163 10.4409 1.25489C10.1954 1.20484 9.94817 1.16427 9.69962 1.13326C9.42731 1.09862 9.1539 1.07323 8.87987 1.05714C8.58687 1.03901 8.2935 1.03089 8 1.03126ZM2.30225 2.50689V13.4931C2.30225 14.6221 4.80912 15.5376 7.91987 15.5556H8C11.1465 15.5556 13.6977 14.6665 13.6977 13.4931V2.50689C13.6977 3.65339 11.1465 4.56889 8 4.56889C4.8535 4.56889 2.30225 3.68014 2.30225 2.50689ZM5.06687 7.06689C5.36962 7.05476 5.67137 7.10314 5.95562 7.20901V7.97314C5.69576 7.79187 5.3834 7.70128 5.06687 7.71539C4.93402 7.70908 4.80278 7.74663 4.69337 7.82226C4.65001 7.8514 4.61493 7.89128 4.59156 7.938C4.56818 7.98473 4.55731 8.03671 4.56 8.08889C4.55787 8.14103 4.56619 8.19308 4.58448 8.24196C4.60277 8.29084 4.63066 8.33557 4.6665 8.37351C4.80159 8.48954 4.95484 8.58257 5.12012 8.64889C5.39887 8.76422 5.65024 8.93692 5.85787 9.15576C6.00539 9.32907 6.08444 9.55034 6.08012 9.77789C6.09744 9.92619 6.07994 10.0765 6.02899 10.2168C5.97803 10.3572 5.89505 10.4837 5.78662 10.5864C5.47965 10.7987 5.11043 10.902 4.73787 10.8799C4.40773 10.8916 4.08014 10.8181 3.78662 10.6665V9.83989C4.0536 10.0777 4.39786 10.2104 4.75537 10.2134C4.89546 10.2203 5.03454 10.1863 5.15575 10.1158C5.1997 10.0844 5.23554 10.043 5.26026 9.99506C5.28498 9.94707 5.29788 9.89387 5.29787 9.83989C5.29767 9.78566 5.28563 9.73212 5.2626 9.68302C5.23956 9.63393 5.20608 9.59045 5.1645 9.55564C4.99472 9.42647 4.80955 9.31889 4.61325 9.23539C4.00875 8.96876 3.7245 8.61326 3.7245 8.16014C3.71952 8.00808 3.75076 7.85702 3.81563 7.7194C3.88051 7.58179 3.97716 7.46156 4.09762 7.36864C4.37416 7.15526 4.71808 7.04819 5.06687 7.06689ZM8.26662 7.10201C8.57818 7.09981 8.88483 7.17965 9.15575 7.33351C9.42305 7.49104 9.63911 7.7225 9.77787 8.00001C9.95051 8.2858 10.0512 8.60923 10.0712 8.94251C10.0814 9.33593 9.97966 9.72414 9.77787 10.062C9.57275 10.3872 9.2569 10.6273 8.88862 10.7378L9.98237 11.7153H8.90675L8.14212 10.8266C7.82794 10.8153 7.52193 10.7235 7.25337 10.56C6.98907 10.4055 6.77587 10.1768 6.64012 9.90239C6.50153 9.62633 6.42851 9.32202 6.42675 9.01314C6.42125 8.66178 6.50049 8.31426 6.65775 8.00001C6.80699 7.72344 7.0321 7.49524 7.30662 7.34226C7.59933 7.17765 7.93088 7.09468 8.26662 7.10201ZM10.6665 7.11139H11.4667V10.1333H12.8535V10.7823H10.6665V7.11139ZM8.231 7.72464C8.0982 7.72405 7.96696 7.75327 7.84696 7.81014C7.72696 7.86702 7.62125 7.9501 7.53762 8.05326C7.35052 8.31046 7.2593 8.625 7.27975 8.94239C7.25874 9.25972 7.35003 9.57433 7.53762 9.83114C7.61671 9.93433 7.71928 10.0172 7.83681 10.0728C7.95433 10.1284 8.08342 10.1552 8.21337 10.1509C8.34231 10.1548 8.47041 10.1288 8.58758 10.0748C8.70475 10.0208 8.8078 9.94043 8.88862 9.83989C9.0801 9.58197 9.16889 9.2621 9.13775 8.94239C9.15725 8.62739 9.07275 8.31539 8.898 8.05326C8.82345 7.94677 8.72325 7.86082 8.60666 7.80335C8.49006 7.74588 8.36085 7.71889 8.231 7.72464Z" fill="black"/>
</svg>
