<svg width="16" height="16" viewBox="0 0 16 16" fill="none" xmlns="http://www.w3.org/2000/svg">
<path fill-rule="evenodd" clip-rule="evenodd" d="M13.9964 6.21875L9.77767 2L9.07455 2.70312L9.7004 3.32898L6.83817 5.23713C6.78913 5.26982 6.73015 5.28386 6.67146 5.27847C6.53589 5.26602 6.39929 5.25972 6.26205 5.25971C5.07529 5.25971 3.93715 5.73115 3.09798 6.57031L2.9232 6.7451C2.82557 6.84273 2.82557 7.00102 2.9232 7.09865L5.55892 9.73438L3.27476 12.0185C3.17713 12.1162 3.17713 12.2745 3.27476 12.3721L3.62433 12.7217C3.72196 12.8193 3.88026 12.8193 3.97789 12.7217L6.26205 10.4375L8.89777 13.0732C8.9954 13.1709 9.15369 13.1709 9.25132 13.0732L9.42611 12.8984C10.2653 12.0593 10.7367 10.9211 10.7367 9.73438C10.7367 9.59714 10.7304 9.46053 10.7179 9.32496C10.7126 9.26627 10.7266 9.20729 10.7593 9.15825L12.6674 6.29602L13.2933 6.92188L13.9964 6.21875ZM10.4174 4.04602L11.9504 5.57898L9.72372 8.91899C9.6889 8.97122 9.675 9.03463 9.68479 9.09663L9.69983 9.19196C9.72796 9.37025 9.74234 9.55156 9.74234 9.73438C9.74234 10.49 9.49658 11.2204 9.04932 11.8185L4.1779 6.94711C4.77604 6.49985 5.50637 6.25408 6.26205 6.25408C6.44487 6.25408 6.62617 6.26847 6.80446 6.2966L6.89979 6.31164C6.96179 6.32142 7.0252 6.30752 7.07743 6.2727L10.4174 4.04602Z" fill="#0D0D0E"/>
</svg>
