<svg width="16" height="16" viewBox="0 0 16 16" fill="none" xmlns="http://www.w3.org/2000/svg">
<path d="M15.2246 11.6375C14.3871 12.075 10.0496 13.85 9.12461 14.3375C8.19961 14.825 7.68711 14.8125 6.96211 14.4625C6.23711 14.1125 1.62461 12.2625 0.787109 11.8625C0.374609 11.6625 0.162109 11.5 0.162109 11.3375V9.75003C0.162109 9.75003 6.16211 8.43753 7.13711 8.10003C8.11211 7.75003 8.43711 7.73753 9.26211 8.03753C10.0871 8.33753 15.0246 9.22503 15.8371 9.52503V11.0875C15.8371 11.25 15.6496 11.425 15.2246 11.6375Z" fill="#A41E11"/>
<path d="M15.225 10.0624C14.3875 10.4999 10.05 12.2749 9.12496 12.7624C8.19995 13.2499 7.68746 13.2374 6.96246 12.8874C6.23746 12.5374 1.62496 10.6749 0.787455 10.2749C-0.0375449 9.87488 -0.0625449 9.59988 0.749955 9.28738C1.56246 8.96238 6.14996 7.16238 7.12496 6.82488C8.09996 6.47488 8.42496 6.46238 9.24996 6.76238C10.075 7.06238 14.3875 8.77488 15.2 9.07488C16.0375 9.37488 16.0625 9.62488 15.225 10.0624Z" fill="#D82C20"/>
<path d="M15.2246 9.06238C14.3871 9.49988 10.0496 11.2749 9.12461 11.7624C8.19961 12.2374 7.68711 12.2374 6.96211 11.8874C6.23711 11.5374 1.62461 9.67488 0.787109 9.27488C0.374609 9.07488 0.162109 8.91238 0.162109 8.74988V7.16238C0.162109 7.16238 6.16211 5.84988 7.13711 5.51238C8.11211 5.16238 8.43711 5.14988 9.26211 5.44988C10.0871 5.74988 15.0246 6.63738 15.8371 6.93738V8.49988C15.8371 8.66238 15.6496 8.83738 15.2246 9.06238Z" fill="#A41E11"/>
<path d="M15.2246 7.47498C14.3871 7.91248 10.0496 9.68748 9.12456 10.175C8.19956 10.65 7.68706 10.65 6.96206 10.3C6.23706 9.94998 1.62456 8.08748 0.787056 7.68748C-0.0504439 7.28748 -0.0629439 7.01248 0.749556 6.69998C1.56206 6.37498 6.14956 4.57498 7.12456 4.23748C8.09956 3.88748 8.42456 3.87498 9.24956 4.17498C10.0746 4.47498 14.3871 6.18748 15.1996 6.48748C16.0371 6.78748 16.0621 7.03748 15.2246 7.47498Z" fill="#D82C20"/>
<path d="M15.2254 6.37508C14.3879 6.81258 10.0504 8.58758 9.12539 9.07508C8.20039 9.55008 7.68789 9.55008 6.96289 9.20008C6.23789 8.86258 1.62539 7.00008 0.787891 6.60008C0.375391 6.40008 0.150391 6.23758 0.150391 6.07508V4.48758C0.150391 4.48758 6.15039 3.17508 7.12539 2.83758C8.10039 2.48758 8.42539 2.47508 9.25039 2.77508C10.0754 3.07508 15.0129 3.96258 15.8254 4.26258V5.82508C15.8379 5.98758 15.6504 6.15008 15.2254 6.37508Z" fill="#A41E11"/>
<path d="M15.2246 4.78743C14.3871 5.22493 10.0496 6.99993 9.12456 7.48743C8.19956 7.96243 7.68706 7.96243 6.96206 7.61243C6.23706 7.26243 1.62456 5.41243 0.787056 5.01243C-0.0504439 4.61243 -0.0629439 4.33743 0.749556 4.02493C1.56206 3.69993 6.14956 1.89993 7.12456 1.56243C8.09956 1.21243 8.42456 1.19993 9.24956 1.49993C10.0746 1.79993 14.3871 3.51243 15.1996 3.81243C16.0371 4.11243 16.0621 4.36243 15.2246 4.78743Z" fill="#D82C20"/>
<path d="M10.0504 3.26255L8.70039 3.41255L8.38789 4.13755L7.90039 3.32505L6.33789 3.18755L7.50039 2.76255L7.15039 2.11255L8.25039 2.53755L9.27539 2.20005L9.00039 2.87505L10.0504 3.26255ZM8.31289 6.81255L5.77539 5.76255L9.41289 5.21255L8.31289 6.81255Z" fill="white"/>
<path d="M4.80005 5.17505C5.8701 5.17505 6.73755 4.83926 6.73755 4.42505C6.73755 4.01084 5.8701 3.67505 4.80005 3.67505C3.73 3.67505 2.86255 4.01084 2.86255 4.42505C2.86255 4.83926 3.73 5.17505 4.80005 5.17505Z" fill="white"/>
<path d="M11.6621 3.4624L13.8121 4.3124L11.6621 5.1624V3.4624Z" fill="#7A0C00"/>
<path d="M9.28711 4.4124L11.6621 3.4624V5.1624L11.4246 5.2624L9.28711 4.4124Z" fill="#AD2115"/>
</svg>
