<svg width="21" height="16" viewBox="0 0 21 16" fill="none" xmlns="http://www.w3.org/2000/svg">
<path d="M4.49733 14C3.91586 14 3.44622 13.9264 3.08839 13.7791C2.73056 13.6319 2.46965 13.4012 2.30564 13.0871C2.14164 12.7681 2.05218 12.3534 2.03727 11.8429C2.02236 11.2147 2.01242 10.5816 2.00745 9.94356C2.00248 9.30061 2 8.65767 2 8.01472C2 7.37178 2.00248 6.73129 2.00745 6.09325C2.01242 5.45522 2.02236 4.82454 2.03727 4.20123C2.05218 3.67607 2.14164 3.25153 2.30564 2.92761C2.47462 2.60368 2.73553 2.3681 3.08839 2.22086C3.44622 2.07362 3.91338 2 4.48988 2C5.33972 2 5.94852 2.16687 6.31628 2.50061C6.68902 2.82945 6.89278 3.37669 6.92757 4.14233C6.94248 4.50061 6.94994 4.84908 6.94994 5.18773C6.94994 5.52147 6.94248 5.86994 6.92757 6.23313H5.61554C5.63045 5.83067 5.6379 5.46258 5.6379 5.12883C5.6379 4.79509 5.63045 4.42945 5.61554 4.0319C5.59566 3.67853 5.50869 3.43558 5.35462 3.30307C5.20056 3.17055 4.91231 3.1043 4.48988 3.1043C4.0575 3.1043 3.7618 3.17055 3.60277 3.30307C3.4487 3.43558 3.36421 3.67853 3.3493 4.0319C3.32943 4.74356 3.31452 5.42577 3.30458 6.07853C3.29464 6.72638 3.28967 7.36687 3.28967 8C3.28967 8.62822 3.29464 9.26626 3.30458 9.91411C3.31452 10.562 3.32943 11.2442 3.3493 11.9607C3.36421 12.3141 3.4487 12.5571 3.60277 12.6896C3.7618 12.8221 4.05999 12.8883 4.49733 12.8883C4.95456 12.8883 5.26268 12.8221 5.42172 12.6896C5.58572 12.5571 5.67766 12.3141 5.69754 11.9607C5.70251 11.735 5.705 11.5141 5.705 11.2982C5.70997 11.0822 5.70997 10.8687 5.705 10.6577C5.705 10.4417 5.70251 10.2209 5.69754 9.99509H4.55697V8.82454H6.97975C6.99466 9.4184 6.99963 9.95828 6.99466 10.4442C6.99466 10.9252 6.98721 11.3914 6.9723 11.8429C6.94745 12.6135 6.74617 13.1656 6.36847 13.4994C5.99573 13.8331 5.37202 14 4.49733 14Z" fill="#868FA2"/>
<path d="M8.50134 14V2H12.4986V3.185H9.76665V7.3625H12.3548V8.5475H9.76665V12.815H12.4986V14H8.50134Z" fill="#868FA2"/>
<path d="M15.8501 14V3.185H14.0034V2H18.9999V3.185H17.1607V14H15.8501Z" fill="#868FA2"/>
</svg>
