<svg width="29" height="16" viewBox="0 0 29 16" fill="none" xmlns="http://www.w3.org/2000/svg">
<path d="M2 14V2H4.50801C5.35737 2 5.97169 2.16 6.35096 2.48C6.73558 2.8 6.94124 3.3275 6.96795 4.0625C6.98932 4.7025 7 5.2775 7 5.7875C7 6.2925 6.98932 6.815 6.96795 7.355C6.9359 8.09 6.72756 8.6175 6.34295 8.9375C5.96368 9.2575 5.34669 9.4175 4.49199 9.4175H3.41026V14H2ZM3.41026 8.2325H4.49199C4.87126 8.2325 5.13836 8.17 5.29327 8.045C5.44818 7.915 5.53365 7.7025 5.54968 7.4075C5.57105 7.0375 5.5844 6.6775 5.58974 6.3275C5.60043 5.9725 5.60043 5.6075 5.58974 5.2325C5.5844 4.8525 5.57105 4.445 5.54968 4.01C5.54434 3.71 5.46154 3.4975 5.30128 3.3725C5.14103 3.2475 4.8766 3.185 4.50801 3.185H3.41026V8.2325Z" fill="#868FA2"/>
<path d="M10.9887 14C10.1263 14 9.50353 13.8282 9.12027 13.4847C8.73701 13.1411 8.54034 12.5767 8.53026 11.7914C8.52017 11.0699 8.51261 10.4 8.50756 9.78159C8.50252 9.15828 8.5 8.5546 8.5 7.97055C8.5 7.3816 8.50252 6.78282 8.50756 6.17423C8.51261 5.56074 8.52017 4.90552 8.53026 4.20859C8.54034 3.41841 8.73701 2.85399 9.12027 2.51534C9.50353 2.17178 10.1263 2 10.9887 2C11.851 2 12.4713 2.17178 12.8495 2.51534C13.2327 2.85399 13.4344 3.41841 13.4546 4.20859C13.4697 4.91043 13.4798 5.5681 13.4849 6.1816C13.495 6.79018 13.5 7.38896 13.5 7.97791C13.5 8.56196 13.495 9.16319 13.4849 9.78159C13.4798 10.4 13.4697 11.0699 13.4546 11.7914C13.4344 12.5767 13.2327 13.1411 12.8495 13.4847C12.4713 13.8282 11.851 14 10.9887 14ZM10.9887 12.8883C11.4072 12.8883 11.6972 12.8147 11.8585 12.6675C12.025 12.5153 12.1107 12.2405 12.1157 11.8429C12.1409 11.1117 12.1586 10.4368 12.1687 9.81841C12.1788 9.19509 12.1838 8.59141 12.1838 8.00736C12.1838 7.41841 12.1788 6.81227 12.1687 6.18896C12.1586 5.56564 12.1409 4.88834 12.1157 4.15706C12.1107 3.75951 12.025 3.48466 11.8585 3.33252C11.6972 3.18037 11.4072 3.1043 10.9887 3.1043C10.5751 3.1043 10.2852 3.18037 10.1188 3.33252C9.95739 3.48466 9.87166 3.75951 9.86157 4.15706C9.8414 4.87362 9.82627 5.54111 9.81619 6.15951C9.8061 6.77301 9.80106 7.37423 9.80106 7.96319C9.80106 8.54724 9.8061 9.15337 9.81619 9.78159C9.82627 10.4098 9.8414 11.0969 9.86157 11.8429C9.87166 12.2405 9.95739 12.5153 10.1188 12.6675C10.2852 12.8147 10.5751 12.8883 10.9887 12.8883Z" fill="#868FA2"/>
<path d="M17.5152 14C16.6514 14 16.029 13.8331 15.6479 13.4994C15.2668 13.1656 15.061 12.6135 15.0305 11.8429C15.0254 11.5779 15.0203 11.3276 15.0152 11.092C15.0152 10.8564 15.0178 10.6184 15.0229 10.3779C15.033 10.1374 15.0457 9.88221 15.061 9.61227H16.3415C16.3211 10.0344 16.3084 10.4442 16.3034 10.8417C16.3034 11.2344 16.3161 11.6294 16.3415 12.027C16.3618 12.3411 16.4609 12.5644 16.6387 12.6969C16.8166 12.8245 17.1062 12.8883 17.5076 12.8883C17.8938 12.8883 18.1707 12.8245 18.3384 12.6969C18.5112 12.5644 18.6103 12.3411 18.6357 12.027C18.656 11.816 18.6662 11.5926 18.6662 11.3571C18.6712 11.1215 18.6687 10.8859 18.6585 10.6503C18.6535 10.4147 18.6458 10.1939 18.6357 9.98773C18.6204 9.61472 18.5366 9.33252 18.3841 9.1411C18.2317 8.94969 17.9903 8.81227 17.6601 8.72883L16.7378 8.51534C16.3059 8.41227 15.9654 8.26503 15.7165 8.07362C15.4726 7.8773 15.2973 7.61718 15.1905 7.29325C15.0838 6.96442 15.0229 6.5546 15.0076 6.0638C15.0025 5.75951 15 5.4454 15 5.12147C15.0051 4.79755 15.0102 4.46871 15.0152 4.13497C15.0305 3.62454 15.1245 3.21472 15.2973 2.90552C15.47 2.59141 15.7368 2.36319 16.0976 2.22086C16.4583 2.07362 16.9284 2 17.5076 2C18.346 2 18.9533 2.16687 19.3293 2.50061C19.7053 2.82945 19.906 3.37669 19.9314 4.14233C19.9416 4.44172 19.9441 4.77055 19.939 5.12883C19.9339 5.48221 19.9263 5.85031 19.9162 6.23313H18.6128C18.628 5.80123 18.6357 5.40368 18.6357 5.04049C18.6408 4.67239 18.6357 4.31411 18.6204 3.96564C18.6103 3.64663 18.5188 3.42331 18.346 3.29571C18.1733 3.1681 17.8913 3.1043 17.5 3.1043C17.1087 3.1043 16.8267 3.1681 16.654 3.29571C16.4812 3.42331 16.3821 3.64663 16.3567 3.96564C16.3364 4.32393 16.3262 4.67239 16.3262 5.01104C16.3313 5.34479 16.3415 5.69571 16.3567 6.0638C16.372 6.45644 16.4355 6.75092 16.5473 6.94724C16.659 7.13865 16.8521 7.26626 17.1265 7.33006L17.9802 7.51411C18.468 7.62209 18.8542 7.77669 19.1387 7.97791C19.4284 8.17914 19.6367 8.44417 19.7637 8.77301C19.8958 9.09693 19.9695 9.50184 19.9848 9.98773C19.9949 10.1791 20 10.3828 20 10.5988C20 10.8147 19.9975 11.0282 19.9924 11.2393C19.9924 11.4503 19.9873 11.6515 19.9771 11.8429C19.9466 12.6135 19.7409 13.1656 19.3598 13.4994C18.9837 13.8331 18.3689 14 17.5152 14Z" fill="#868FA2"/>
<path d="M23.348 14V3.185H21.5V2H26.5V3.185H24.6595V14H23.348Z" fill="#868FA2"/>
</svg>
